<!-- joining progress:Merging commit-graph with multiple 2 -->
<svg width="521.2" height="370">
<style>
.box { font: 16px sans-serif; }
.axis { font: 12px sans-serif; }
</style>
<line x1="0" y1="0" x2="0" y2="370" style="stroke-width:1; stroke:black;" />
<text class="axis" x="3" y="10">0s</text>
<line x1="100" y1="0" x2="100" y2="370" style="stroke-width:1; stroke:black;" />
<text class="axis" x="103" y="10">1s</text>
<line x1="200" y1="0" x2="200" y2="370" style="stroke-width:1; stroke:black;" />
<text class="axis" x="203" y="10">2s</text>
<line x1="300" y1="0" x2="300" y2="370" style="stroke-width:1; stroke:black;" />
<text class="axis" x="303" y="10">3s</text>
<line x1="400" y1="0" x2="400" y2="370" style="stroke-width:1; stroke:black;" />
<text class="axis" x="403" y="10">4s</text>
<line x1="500" y1="0" x2="500" y2="370" style="stroke-width:1; stroke:black;" />
<text class="axis" x="503" y="10">5s</text>
<rect width="17.1" height="50" x="1.5000000000000002" y="210" style="fill:rgb(190,63.333333333333336,63.333333333333336);stroke-width:3;stroke:rgb(40,40,40)" />
<text class="box" x="6.5" y="250">/usr/local/libexec/git-core/git pack-refs --all --prune</text>
<rect width="42.6" height="50" x="19.700000000000003" y="210" style="fill:rgb(190,63.333333333333336,63.333333333333336);stroke-width:3;stroke:rgb(40,40,40)" />
<text class="box" x="24.700000000000003" y="250">/usr/local/libexec/git-core/git multi-pack-index write</text>
<rect width="41.7" height="50" x="85.2" y="60" style="fill:rgb(250,83.33333333333333,83.33333333333333);stroke-width:3;stroke:rgb(100,100,100)" />
<text class="box" x="90.2" y="100">progress:Enumerating objects</text>
<rect width="114.7" height="50" x="126.9" y="60" style="fill:rgb(250,83.33333333333333,83.33333333333333);stroke-width:3;stroke:rgb(100,100,100)" />
<text class="box" x="131.9" y="100">progress:Counting objects</text>
<rect width="41.7" height="50" x="85.2" y="110" style="fill:rgb(230,76.66666666666667,76.66666666666667);stroke-width:3;stroke:rgb(80,80,80)" />
<text class="box" x="90.2" y="150">pack-objects:enumerate-objects</text>
<rect width="89.30000000000001" height="50" x="244.60000000000002" y="60" style="fill:rgb(250,83.33333333333333,83.33333333333333);stroke-width:3;stroke:rgb(100,100,100)" />
<text class="box" x="249.60000000000002" y="100">progress:Compressing objects</text>
<rect width="207.10000000000002" height="50" x="126.9" y="110" style="fill:rgb(230,76.66666666666667,76.66666666666667);stroke-width:3;stroke:rgb(80,80,80)" />
<text class="box" x="131.9" y="150">pack-objects:prepare-pack</text>
<rect width="387.1" height="50" x="85.00000000000001" y="160" style="fill:rgb(210,70,70);stroke-width:3;stroke:rgb(60,60,60)" />
<text class="box" x="90.00000000000001" y="200">/usr/local/libexec/git-core/git pack-objects .git/objects/pack/pack --delta-base-offset --progress</text>
<rect width="18.3" height="50" x="63.5" y="210" style="fill:rgb(190,63.333333333333336,63.333333333333336);stroke-width:3;stroke:rgb(40,40,40)" />
<text class="box" x="68.5" y="250">/usr/local/libexec/git-core/git multi-pack-index expire</text>
<rect width="18.400000000000002" height="50" x="0.30000000000000004" y="260" style="fill:rgb(170,56.666666666666664,56.666666666666664);stroke-width:3;stroke:rgb(20,20,20)" />
<text class="box" x="5.3" y="300">maintenance:pack-refs</text>
<rect width="138.10000000000002" height="50" x="334.00000000000006" y="110" style="fill:rgb(230,76.66666666666667,76.66666666666667);stroke-width:3;stroke:rgb(80,80,80)" />
<text class="box" x="339.00000000000006" y="150">pack-objects:write-pack-file</text>
<rect width="424.90000000000003" height="50" x="83.4" y="210" style="fill:rgb(190,63.333333333333336,63.333333333333336);stroke-width:3;stroke:rgb(40,40,40)" />
<text class="box" x="88.4" y="250">/usr/local/libexec/git-core/git multi-pack-index repack --batch-size=207578475</text>
<rect width="489.70000000000005" height="50" x="18.700000000000003" y="260" style="fill:rgb(170,56.666666666666664,56.666666666666664);stroke-width:3;stroke:rgb(20,20,20)" />
<text class="box" x="23.700000000000003" y="300">maintenance:incremental-repack</text>
<rect width="521.2" height="50" x="0" y="310" style="fill:rgb(150,50,50);stroke-width:3;stroke:rgb(0,0,0)" />
<text class="box" x="5" y="350">git maintenance run --task=commit-graph --task=incremental-repack --task=pack-refs</text>
<rect width="12.700000000000001" height="50" x="508.5" y="260" style="fill:rgb(170,56.666666666666664,56.666666666666664);stroke-width:3;stroke:rgb(20,20,20)" />
<text class="box" x="513.5" y="300">maintenance:commit-graph</text>
<rect width="11.600000000000001" height="50" x="509.40000000000003" y="210" style="fill:rgb(190,63.333333333333336,63.333333333333336);stroke-width:3;stroke:rgb(40,40,40)" />
<text class="box" x="514.4000000000001" y="250">/usr/local/libexec/git-core/git commit-graph write --split --reachable</text>
<rect width="138.10000000000002" height="50" x="334.00000000000006" y="60" style="fill:rgb(250,83.33333333333333,83.33333333333333);stroke-width:3;stroke:rgb(100,100,100)" />
<text class="box" x="339.00000000000006" y="100">progress:Writing objects</text>
</svg>
